<svg width="149" height="40" viewBox="0 0 149 40" fill="none" xmlns="http://www.w3.org/2000/svg">
<g filter="url(#filter0_d_327_26532)">
<path d="M6 0V3H3V6H0V31H3V34H6V37H9V0H6Z" fill="#A91515"/>
</g>
<path d="M6 0V3H3V6H0V31H3V34H6V37H9V0H6Z" fill="white" fill-opacity="0.3"/>
<g filter="url(#filter1_d_327_26532)">
<rect width="128" height="37" transform="translate(9)" fill="#A91515"/>
<rect x="9" width="128" height="37" fill="white" fill-opacity="0.3"/>
</g>
<g filter="url(#filter2_d_327_26532)">
<path d="M140 37V34H143V31H146V6H143V3H140V0H137V37H140Z" fill="#A91515"/>
</g>
<path d="M140 37V34H143V31H146V6H143V3H140V0H137V37H140Z" fill="white" fill-opacity="0.3"/>
<defs>
<filter id="filter0_d_327_26532" x="0" y="0" width="12" height="40" filterUnits="userSpaceOnUse" color-interpolation-filters="sRGB">
<feFlood flood-opacity="0" result="BackgroundImageFix"/>
<feColorMatrix in="SourceAlpha" type="matrix" values="0 0 0 0 0 0 0 0 0 0 0 0 0 0 0 0 0 0 127 0" result="hardAlpha"/>
<feOffset dx="3" dy="3"/>
<feComposite in2="hardAlpha" operator="out"/>
<feColorMatrix type="matrix" values="0 0 0 0 0.117647 0 0 0 0 0.203922 0 0 0 0 0.270588 0 0 0 1 0"/>
<feBlend mode="normal" in2="BackgroundImageFix" result="effect1_dropShadow_327_26532"/>
<feBlend mode="normal" in="SourceGraphic" in2="effect1_dropShadow_327_26532" result="shape"/>
</filter>
<filter id="filter1_d_327_26532" x="9" y="0" width="131" height="40" filterUnits="userSpaceOnUse" color-interpolation-filters="sRGB">
<feFlood flood-opacity="0" result="BackgroundImageFix"/>
<feColorMatrix in="SourceAlpha" type="matrix" values="0 0 0 0 0 0 0 0 0 0 0 0 0 0 0 0 0 0 127 0" result="hardAlpha"/>
<feOffset dx="3" dy="3"/>
<feComposite in2="hardAlpha" operator="out"/>
<feColorMatrix type="matrix" values="0 0 0 0 0.117647 0 0 0 0 0.203922 0 0 0 0 0.270588 0 0 0 1 0"/>
<feBlend mode="normal" in2="BackgroundImageFix" result="effect1_dropShadow_327_26532"/>
<feBlend mode="normal" in="SourceGraphic" in2="effect1_dropShadow_327_26532" result="shape"/>
</filter>
<filter id="filter2_d_327_26532" x="137" y="0" width="12" height="40" filterUnits="userSpaceOnUse" color-interpolation-filters="sRGB">
<feFlood flood-opacity="0" result="BackgroundImageFix"/>
<feColorMatrix in="SourceAlpha" type="matrix" values="0 0 0 0 0 0 0 0 0 0 0 0 0 0 0 0 0 0 127 0" result="hardAlpha"/>
<feOffset dx="3" dy="3"/>
<feComposite in2="hardAlpha" operator="out"/>
<feColorMatrix type="matrix" values="0 0 0 0 0.117647 0 0 0 0 0.203922 0 0 0 0 0.270588 0 0 0 1 0"/>
<feBlend mode="normal" in2="BackgroundImageFix" result="effect1_dropShadow_327_26532"/>
<feBlend mode="normal" in="SourceGraphic" in2="effect1_dropShadow_327_26532" result="shape"/>
</filter>
</defs>
</svg>
